<svg xmlns="http://www.w3.org/2000/svg" width="21.752" height="26.283" viewBox="0 0 21.752 26.283"><defs><style>.a{fill:#fff;}</style></defs><g transform="translate(-39.995)"><g transform="translate(39.995)"><g transform="translate(0)"><path class="a" d="M61.652,22.833l-2.757-3.545a3.991,3.991,0,0,0,2.182-1.615c.649-1.122.356-2.492.072-3.816a10.422,10.422,0,0,1-.307-2.075A10.418,10.418,0,0,1,61.148,9.7c.282-1.324.578-2.693-.072-3.814C60.4,4.729,59.05,4.3,57.74,3.884a9.7,9.7,0,0,1-1.884-.738,9.206,9.206,0,0,1-1.509-1.224C53.375,1.021,52.273,0,50.871,0s-2.5,1.021-3.476,1.922a9.209,9.209,0,0,1-1.509,1.224A9.7,9.7,0,0,1,44,3.882c-1.31.415-2.664.845-3.336,2.007-.649,1.122-.356,2.492-.072,3.816a10.418,10.418,0,0,1,.306,2.077,10.418,10.418,0,0,1-.307,2.077c-.282,1.324-.578,2.693.072,3.814a3.991,3.991,0,0,0,2.184,1.615l-2.76,3.545a.453.453,0,0,0,.414.728l3.24-.4.8,2.8a.453.453,0,0,0,.349.32.462.462,0,0,0,.086.008.453.453,0,0,0,.358-.175l2.894-3.722a4.19,4.19,0,0,0,2.639,1.178,4.19,4.19,0,0,0,2.639-1.178L56.4,26.107a.453.453,0,0,0,.358.176.462.462,0,0,0,.086-.008.453.453,0,0,0,.349-.32l.8-2.8,3.24.4a.453.453,0,0,0,.414-.728ZM45.171,24.847l-.661-2.314a.453.453,0,0,0-.492-.325l-2.538.317L43.754,19.6l.251.08a9.7,9.7,0,0,1,1.882.736A9.206,9.206,0,0,1,47.4,21.642l.156.144Zm5.7-2.189c-1.047,0-1.927-.816-2.86-1.68a9.989,9.989,0,0,0-1.672-1.345,10.507,10.507,0,0,0-2.063-.816c-1.2-.38-2.329-.739-2.826-1.6-.474-.82-.229-1.962.03-3.172a11.1,11.1,0,0,0,.327-2.266,11.093,11.093,0,0,0-.327-2.266c-.26-1.209-.5-2.352-.03-3.172.5-.858,1.628-1.217,2.826-1.6a10.51,10.51,0,0,0,2.063-.816,9.988,9.988,0,0,0,1.671-1.345c.933-.865,1.814-1.68,2.86-1.68s1.927.816,2.86,1.68A9.989,9.989,0,0,0,55.4,3.931a10.507,10.507,0,0,0,2.063.816c1.2.38,2.329.739,2.826,1.6.474.82.229,1.962-.03,3.172a11.1,11.1,0,0,0-.327,2.266,11.093,11.093,0,0,0,.327,2.266c.26,1.209.5,2.352.03,3.172-.5.858-1.628,1.217-2.826,1.6a10.511,10.511,0,0,0-2.063.816,9.989,9.989,0,0,0-1.671,1.345C52.8,21.842,51.918,22.658,50.871,22.658Zm6.856-.45a.453.453,0,0,0-.492.325l-.663,2.314-2.381-3.061.156-.144a9.208,9.208,0,0,1,1.509-1.224,9.7,9.7,0,0,1,1.883-.736l.251-.08,2.275,2.924Z" transform="translate(-39.995)"/></g></g><g transform="translate(42.714 3.625)"><path class="a" d="M96.157,64a8.157,8.157,0,1,0,8.157,8.157A8.157,8.157,0,0,0,96.157,64Zm0,15.407a7.251,7.251,0,1,1,7.251-7.251A7.251,7.251,0,0,1,96.157,79.407Z" transform="translate(-88 -64)"/></g><g transform="translate(45.468 6.252)"><g transform="translate(0)"><path class="a" d="M147.248,114.013a.906.906,0,0,0-.732-.373h-2.774L142.88,111a.906.906,0,0,0-1.722,0l-.859,2.641h-2.777a.906.906,0,0,0-.534,1.639l2.246,1.631-.858,2.641a.906.906,0,0,0,1.395,1.013l2.247-1.631,2.246,1.631a.906.906,0,0,0,1.395-1.013l-.858-2.641,2.246-1.631A.906.906,0,0,0,147.248,114.013ZM144,116.371a.453.453,0,0,0-.165.507l.96,2.954-2.513-1.825a.453.453,0,0,0-.532,0l-2.513,1.825.959-2.954a.453.453,0,0,0-.164-.507l-2.512-1.825h3.105a.453.453,0,0,0,.431-.313l.96-2.954.96,2.953a.453.453,0,0,0,.431.313h3.105Z" transform="translate(-136.616 -110.376)"/></g></g></g></svg>