<svg xmlns="http://www.w3.org/2000/svg" width="116.958" height="105.262" viewBox="0 0 116.958 105.262"><defs><style>.a{fill:#f6973a;}</style></defs><g transform="translate(0 -24)"><g transform="translate(0 24)"><g transform="translate(0 0)"><path class="a" d="M109.161,24H19.493a7.8,7.8,0,0,0-7.8,7.8V94.175H1.949A1.949,1.949,0,0,0,0,96.124a7.8,7.8,0,0,0,7.8,7.8h56.53v23.392a1.949,1.949,0,0,0,3.327,1.378l10.318-10.318L88.29,128.691a1.949,1.949,0,0,0,1.378.571,1.924,1.924,0,0,0,.747-.148,1.949,1.949,0,0,0,1.2-1.8V103.922h5.848a7.8,7.8,0,0,0,7.8-7.8V33.747h9.747a1.949,1.949,0,0,0,1.949-1.949A7.8,7.8,0,0,0,109.161,24Zm-7.8,7.8V94.175h-7.8v3.9h7.273a3.9,3.9,0,0,1-3.374,1.949H91.617V98.074h-3.9v24.534l-8.368-8.368a1.949,1.949,0,0,0-2.756,0l-8.368,8.368V98.074h-3.9v1.949H7.8a3.9,3.9,0,0,1-3.374-1.949H62.378v-3.9H15.594V31.8a3.9,3.9,0,0,1,3.9-3.9h82.955A7.718,7.718,0,0,0,101.364,31.8Zm4.423-1.949a3.9,3.9,0,0,1,6.748,0Z" transform="translate(0 -24)"/></g></g><g transform="translate(59.335 61.063)"><path class="a" d="M280.526,200.049l-2.5-4.474,2.507-4.47a1.949,1.949,0,0,0-.742-2.655c-.047-.027-.1-.051-.145-.074L275,186.246l-.6-5.088a1.949,1.949,0,0,0-2.166-1.706q-.075.009-.148.023l-5.025,1-3.476-3.764a2.008,2.008,0,0,0-2.839-.022l-.022.022-3.476,3.764-5.025-1a1.949,1.949,0,0,0-2.29,1.534q-.015.073-.023.148l-.6,5.088-4.653,2.134a1.949,1.949,0,0,0-.961,2.584q.034.074.074.145l2.507,4.466-2.507,4.47a1.949,1.949,0,0,0,.742,2.655c.047.027.1.051.145.074l4.653,2.134.6,5.092a1.949,1.949,0,0,0,2.166,1.706q.075-.009.148-.023l5.025-1,3.476,3.764a1.949,1.949,0,0,0,2.755.107q.056-.052.107-.107l3.476-3.764,5.025,1a1.922,1.922,0,0,0,1.524-.335,1.949,1.949,0,0,0,.78-1.347l.6-5.088,4.653-2.134a1.949,1.949,0,0,0,.961-2.584C280.577,200.145,280.552,200.1,280.526,200.049Zm-6.431-3.522,2.006,3.579-3.727,1.71a1.949,1.949,0,0,0-1.123,1.544l-.48,4.08-4.029-.8a1.921,1.921,0,0,0-1.809.585l-2.784,3.018-2.784-3.014a1.949,1.949,0,0,0-1.431-.626,1.76,1.76,0,0,0-.378.039l-4.029.8-.48-4.08a1.949,1.949,0,0,0-1.123-1.544l-3.727-1.71,2.006-3.579a1.912,1.912,0,0,0,0-1.906v.008l-2.006-3.579,3.727-1.71a1.949,1.949,0,0,0,1.123-1.544l.48-4.08,4.029.8a1.93,1.93,0,0,0,1.809-.585l2.784-3.023,2.784,3.014a1.92,1.92,0,0,0,1.809.585l4.029-.8.48,4.08a1.949,1.949,0,0,0,1.123,1.544l3.727,1.71-2.006,3.579A1.95,1.95,0,0,0,274.095,196.527Z" transform="translate(-243.512 -176.109)"/></g><g transform="translate(68.226 70.783)"><path class="a" d="M289.747,216a9.747,9.747,0,1,0,9.747,9.747A9.747,9.747,0,0,0,289.747,216Zm0,15.594a5.848,5.848,0,1,1,5.848-5.848A5.848,5.848,0,0,1,289.747,231.594Z" transform="translate(-280 -216)"/></g><g transform="translate(42.885 35.696)"><rect class="a" width="31.189" height="3.899"/></g><g transform="translate(23.392 47.392)"><rect class="a" width="70.175" height="3.899"/></g><g transform="translate(23.392 55.189)"><rect class="a" width="70.175" height="3.899"/></g><g transform="translate(25.341 80.53)"><rect class="a" width="25.341" height="3.899"/></g></g></svg>