<svg xmlns="http://www.w3.org/2000/svg" width="24.979" height="20.39" viewBox="0 0 24.979 20.39"><defs><style>.a{fill:#fff;}</style></defs><g transform="translate(0 -36.648)"><g transform="translate(0 36.648)"><g transform="translate(0 0)"><path class="a" d="M58.6,206.9a3.251,3.251,0,0,1-3.206,0l-7.258-4.452s-.655-.4-.655.508V207.4c0,2.342,4.261,4.866,9.516,4.866s9.516-2.524,9.516-4.866v-4.7c0-.73-.466-.373-.466-.373Z" transform="translate(-44.509 -191.873)"/><path class="a" d="M24.56,43.677a.671.671,0,0,0,0-1.244L13.5,36.9a2.132,2.132,0,0,0-2.028,0L.418,42.433a.671.671,0,0,0,0,1.244l11.057,6.781a2.132,2.132,0,0,0,2.028,0" transform="translate(0 -36.648)"/><path class="a" d="M357.645,193.427v-7.489s.005-.355-.205-.238a6.121,6.121,0,0,0-.729.452.629.629,0,0,0-.13.475v6.8a.2.2,0,0,1-.123.166,1.294,1.294,0,1,0,1.3,0A.193.193,0,0,1,357.645,193.427Z" transform="translate(-333.542 -176.346)"/></g></g></g></svg>