<svg xmlns="http://www.w3.org/2000/svg" width="105.28" height="105.262" viewBox="0 0 105.28 105.262"><defs><style>.a{fill:#b5328e;}</style></defs><g transform="translate(0 -0.039)"><path class="a" d="M255.042,99.919a5.266,5.266,0,0,0-9.649-1.264l-.877,1.527a1.754,1.754,0,0,0-2.386.632l-4.456,7.6-1.527-.877a1.753,1.753,0,1,0-1.754,3.035l1.527.877-14.912,25.842-3.684,9.843-1.754,3.28a5.264,5.264,0,0,0,.281,5.685l-3.947,4.842-1.105-2.771a3.509,3.509,0,0,0-6.264-.492l-.631,1.07-.6-7.018a3.509,3.509,0,0,0-6.825-.824l-4.316,12.947a1.754,1.754,0,0,0,1.105,2.211,1.519,1.519,0,0,0,.544.14,1.754,1.754,0,0,0,1.667-1.192l4.3-12.947.614,7.122a3.509,3.509,0,0,0,6.509,1.509l.649-1.071,1.088,2.755a3.508,3.508,0,0,0,6,.894l4.088-5.175a5.4,5.4,0,0,0,1.386.176,5.264,5.264,0,0,0,4.579-2.6l1.754-2.93,6.684-8.123,15.07-26.158,1.527.877a1.759,1.759,0,0,1,.649,2.4L243.358,133.9a1.742,1.742,0,1,0,2.965,1.825l7.017-12.158a5.261,5.261,0,0,0-1.93-7.193l-1.527-.877,4.386-7.6a1.755,1.755,0,0,0-.631-2.386l.877-1.527a5.261,5.261,0,0,0,.526-4.07Zm-6.614.491a1.754,1.754,0,0,1,1.071-.824,1.842,1.842,0,0,1,1.333.176,1.756,1.756,0,0,1,.825,1.07,1.842,1.842,0,0,1-.176,1.333l-.877,1.527-3.053-1.754Zm-23.912,48.983-.877-.509-2.6-1.509,2.491-6.666,5.526,3.193Zm-5.263,5.07a1.753,1.753,0,0,1-.526-2.3l.877-1.526,3.052,1.754-.877,1.509a1.754,1.754,0,0,1-2.526.561Zm11.807-13.438-6.07-3.509L239.024,113.2l6.07,3.509Zm15.789-27.351-6.07-3.509,3.509-6.07,6.07,3.509Zm0,0" transform="translate(-149.955 -74.932)"/><path class="a" d="M80.234,357.018l-6.21,6.193-3.719-3.719a1.755,1.755,0,1,0-2.474,2.491l3.719,3.719a3.537,3.537,0,0,0,4.965,0l6.193-6.211a1.755,1.755,0,0,0-2.474-2.474Zm0,0" transform="translate(-52.551 -278.366)"/><path class="a" d="M32,326.953a14.912,14.912,0,0,0,29.824,0,1.754,1.754,0,1,0-3.509,0,11.4,11.4,0,1,1-4.562-9.122,1.755,1.755,0,0,0,2.106-2.807A14.912,14.912,0,0,0,32,326.953Zm0,0" transform="translate(-24.983 -243.581)"/><path class="a" d="M119.368,51.548a1.754,1.754,0,0,0,0-3.509H73.754A1.754,1.754,0,0,0,72,49.793v7.018a1.754,1.754,0,0,0,1.754,1.754h45.614a1.754,1.754,0,0,0,0-3.509H75.509V51.548Zm0,0" transform="translate(-56.211 -37.474)"/><path class="a" d="M97.754,112.039a1.754,1.754,0,0,0,0,3.509h35.088a1.754,1.754,0,1,0,0-3.509Zm0,0" transform="translate(-74.947 -87.439)"/><path class="a" d="M168.351,168.039h-38.6a1.754,1.754,0,0,0,0,3.509h38.6a1.754,1.754,0,1,0,0-3.509Zm0,0" transform="translate(-99.93 -131.158)"/><path class="a" d="M94.6,217.793a1.754,1.754,0,0,0-1.754-1.754H57.754a1.754,1.754,0,0,0,0,3.509H92.842A1.754,1.754,0,0,0,94.6,217.793Zm0,0" transform="translate(-43.719 -168.632)"/><path class="a" d="M262.035,216.039H249.754a1.754,1.754,0,0,0,0,3.509h12.281a1.754,1.754,0,0,0,0-3.509Zm0,0" transform="translate(-193.614 -168.632)"/><path class="a" d="M75.3,259.548a1.754,1.754,0,1,0,0-3.509H57.754a1.754,1.754,0,0,0,0,3.509Zm0,0" transform="translate(-43.719 -199.86)"/><path class="a" d="M169.754,259.548h12.281a1.754,1.754,0,1,0,0-3.509H169.754a1.754,1.754,0,1,0,0,3.509Zm0,0" transform="translate(-131.158 -199.86)"/><path class="a" d="M78.947,80.74a1.754,1.754,0,0,0-1.754,1.754v17.544a1.754,1.754,0,0,1-1.754,1.754H5.263a1.754,1.754,0,0,1-1.754-1.754V5.3A1.754,1.754,0,0,1,5.263,3.548H75.438A1.754,1.754,0,0,1,77.193,5.3V38.25a1.754,1.754,0,1,0,3.509,0V5.3A5.263,5.263,0,0,0,75.438.039H5.263A5.263,5.263,0,0,0,0,5.3v94.736A5.263,5.263,0,0,0,5.263,105.3H75.438a5.263,5.263,0,0,0,5.263-5.263V82.495A1.754,1.754,0,0,0,78.947,80.74Zm0,0"/></g></svg>