<svg xmlns="http://www.w3.org/2000/svg" width="25.906" height="24.898" viewBox="0 0 25.906 24.898"><defs><style>.a{fill:#f9df73;}.b{fill:#f2ae5a;}</style></defs><g transform="translate(-0.178 -5.419)"><rect class="a" width="2.65" height="5.141" transform="translate(11.539 24.501)"/><rect class="b" width="1.325" height="5.141" transform="translate(11.539 24.501)"/><g transform="translate(6.209 5.419)"><path class="a" d="M126.509,38.037h0a6.12,6.12,0,0,1-6.1-5.641l-.816-10.411a.745.745,0,0,1,.743-.8h12.349a.745.745,0,0,1,.743.8L132.61,32.4A6.12,6.12,0,0,1,126.509,38.037Z" transform="translate(-119.589 -21.181)"/><circle class="a" cx="2.412" cy="2.412" r="2.412" transform="translate(4.243 15.822)"/></g><g transform="translate(0.178 5.419)"><path class="b" d="M8.387,38.608a7.011,7.011,0,0,1-5.656-2.357A9.923,9.923,0,0,1,.717,30.233,16.833,16.833,0,0,1,.88,26.845l.076-.44h3.99L5.953,28.2H7.611v1.06H5.332L4.325,27.465H1.865c-.157,1.366-.436,5.595,1.68,8.106a6,6,0,0,0,4.843,1.977v1.06Z" transform="translate(-0.696 -26.14)"/><path class="b" d="M125.418,37.149a2.294,2.294,0,0,0,.3.145,1.977,1.977,0,0,0-.416.622,5.985,5.985,0,0,1-.762-.205,6.121,6.121,0,0,1-4.129-5.316l-.816-10.411a.745.745,0,0,1,.743-.8h2.252l.494,10.826C123.192,34.429,124.142,36.415,125.418,37.149Z" transform="translate(-113.559 -21.181)"/><path class="b" d="M205.714,340.633h-.074a2.412,2.412,0,0,1-.827-4.678,2.293,2.293,0,0,0,.3.145,1.977,1.977,0,0,0-.416.622,3.723,3.723,0,0,0-.294,1.5C204.4,339.529,204.985,340.593,205.714,340.633Z" transform="translate(-192.954 -319.988)"/><path class="b" d="M252.234,427.9c.065,0,.128-.006.191-.013a.774.774,0,0,1-.149.014Z" transform="translate(-239.474 -407.255)"/><path class="b" d="M139.053,453.928a13,13,0,0,1-13.2,0,1.975,1.975,0,0,1,1.819-1.205h9.566A1.975,1.975,0,0,1,139.053,453.928Z" transform="translate(-119.499 -430.832)"/></g><g transform="translate(8.067 5.684)"><path class="a" d="M167.876,453.928a13.009,13.009,0,0,1-11.664.778V454.7a1.975,1.975,0,0,1,1.975-1.975h7.87A1.975,1.975,0,0,1,167.876,453.928Z" transform="translate(-156.212 -431.097)"/><path class="a" d="M359.664,38.609v-1.06a6,6,0,0,0,4.843-1.977c2.116-2.511,1.836-6.739,1.68-8.106h-2.46l-1.007,1.793h-2.279V28.2H362.1l1.007-1.793h3.99l.076.44c.042.244,1,6.015-1.852,9.406A7.011,7.011,0,0,1,359.664,38.609Z" transform="translate(-349.343 -26.406)"/></g><path class="b" d="M178.275,101.23l1.283,2.6,2.87.417-2.077,2.024.49,2.858-2.567-1.35-2.567,1.35.49-2.858-2.077-2.024,2.87-.417Z" transform="translate(-165.146 -91.75)"/></g></svg>