<svg xmlns="http://www.w3.org/2000/svg" width="17.78" height="23.5" viewBox="0 0 17.78 23.5"><defs><style>.a{fill:#4a4a4a;stroke:#4a4a4a;}</style></defs><g transform="translate(-7 0.5)"><path class="a" d="M19.131,10.8a.381.381,0,1,0-.539.539L22.4,15.142a.377.377,0,0,0,.269.112l.008,0,.008,0a.374.374,0,0,0,.3-.161l3.772-3.772a.381.381,0,1,0-.539-.539l-3.155,3.155V.381a.381.381,0,0,0-.763,0V13.968Z" transform="translate(-6.793)"/><path class="a" d="M18.559,16a.381.381,0,0,0,0,.763h4.958V31.636H8.263V16.763H13.22a.381.381,0,1,0,0-.763H7.5V32.4H24.28V16Z" transform="translate(0 -9.898)"/></g></svg>