<svg xmlns="http://www.w3.org/2000/svg" width="41.78" height="61.852" viewBox="0 0 41.78 61.852"><defs><style>.a{fill:#5f5f62;fill-rule:evenodd;}</style></defs><path class="a" d="M69.156,15.737a22.849,22.849,0,0,0-31.3.956A9.752,9.752,0,0,0,35,23.589V63.112h0a8.74,8.74,0,0,0,14.434,6.631,9.355,9.355,0,0,0,.937-.937h0L69.83,49.348a23.032,23.032,0,0,0-.674-33.612M59.682,51.279,47.8,62.77A4.73,4.73,0,0,1,44.526,64.1a4.824,4.824,0,0,1-1.9-.4,4.7,4.7,0,0,1-2.89-4.383V55.877a1.446,1.446,0,0,1,2.892,0v3.446a1.878,1.878,0,0,0,3.173,1.36L57.672,49.2a1.446,1.446,0,0,1,2.01,2.078m9.4-16.853h-.013a1.446,1.446,0,0,1-1.446-1.433,15.268,15.268,0,0,0-2.16-7.7,12.875,12.875,0,0,0-8.226-6.11,11.485,11.485,0,0,0-7.483.833A11.852,11.852,0,0,0,48.032,21a11.188,11.188,0,0,0-4.852,8,8.6,8.6,0,0,1-1.518,17.072,1.446,1.446,0,1,1,0-2.892,5.712,5.712,0,0,0,0-11.423,1.446,1.446,0,0,1-1.446-1.446,14.089,14.089,0,0,1,6.191-11.7,14.717,14.717,0,0,1,2.136-1.216,14.393,14.393,0,0,1,9.328-1.031,15.739,15.739,0,0,1,10.077,7.446,18.175,18.175,0,0,1,2.572,9.16,1.447,1.447,0,0,1-1.433,1.459" transform="translate(-35 -10)"/></svg>