<svg xmlns="http://www.w3.org/2000/svg" width="22.485" height="22.5" viewBox="0 0 22.485 22.5"><defs><style>.a{fill:#f6973a;}</style></defs><g transform="translate(-0.168)"><g transform="translate(0.168)"><path class="a" d="M19.11,16.653a4.614,4.614,0,0,0-1.716-6.935V5.66L11.735,0H.168V22.5H17.394V18.056a4.577,4.577,0,0,0,.783-.471l3.538,3.578.937-.927Zm-6.989-14.4,3.023,3.023H12.121V2.251Zm3.955,18.931H1.486V1.318H10.8V6.592h5.273v2.73a4.613,4.613,0,1,0,0,9.13Zm1.671-4.964a3.3,3.3,0,1,1,0-4.661A3.3,3.3,0,0,1,17.748,16.217Z" transform="translate(-0.168)"/></g><g transform="translate(2.805 7.954)"><rect class="a" width="9.316" height="1.318"/></g><g transform="translate(2.805 10.591)"><rect class="a" width="6.68" height="1.318"/></g><g transform="translate(2.805 15.864)"><rect class="a" width="6.68" height="1.318"/></g><g transform="translate(2.805 13.227)"><rect class="a" width="6.68" height="1.318"/></g></g></svg>