<svg xmlns="http://www.w3.org/2000/svg" width="87.22" height="110.172" viewBox="0 0 87.22 110.172"><defs><style>.a,.b{fill:#f6973a;}.b{font-size:25px;font-family:Muli-Bold, Muli;font-weight:700;}</style></defs><path class="a" d="M144.589,44.963a2.3,2.3,0,0,0-2.3-2.3,32.13,32.13,0,0,0-31.1,24.022,2.3,2.3,0,1,0,4.442,1.156,27.539,27.539,0,0,1,26.658-20.587A2.3,2.3,0,0,0,144.589,44.963Z" transform="translate(-98.684 -33.487)"/><path class="a" d="M277.085,216.417a2.293,2.293,0,0,0-2.8,1.643,27.538,27.538,0,0,1-26.658,20.588,2.3,2.3,0,0,0,0,4.591,32.129,32.129,0,0,0,31.1-24.023A2.3,2.3,0,0,0,277.085,216.417Z" transform="translate(-204.018 -169.789)"/><path class="a" d="M386.056,187.26l.1,0a2.3,2.3,0,0,0,2.291-2.194c.021-.475.032-.959.032-1.437a2.3,2.3,0,1,0-4.591,0c0,.411-.009.826-.027,1.235A2.3,2.3,0,0,0,386.056,187.26Z" transform="translate(-312.738 -142.316)"/><path class="a" d="M140.246,92.04,127.19,69.426a41.314,41.314,0,1,0-60.492,0L53.641,92.04A2.3,2.3,0,0,0,56.223,95.4l17.85-4.782,4.783,17.849a2.3,2.3,0,0,0,1.918,1.681,2.23,2.23,0,0,0,.3.02,2.3,2.3,0,0,0,1.988-1.149L96.93,84.954l13.9,24.07a2.3,2.3,0,0,0,1.987,1.148,2.323,2.323,0,0,0,.3-.02,2.3,2.3,0,0,0,1.917-1.681l4.783-17.849,17.85,4.782a2.3,2.3,0,0,0,2.582-3.365Zm-58.392,9.885L77.913,87.217A2.3,2.3,0,0,0,75.1,85.594L60.387,89.537,70.108,72.7a41.143,41.143,0,0,0,22.97,9.747ZM60.22,41.314A36.724,36.724,0,1,1,96.944,78.039,36.766,36.766,0,0,1,60.22,41.314Zm58.566,44.28a2.3,2.3,0,0,0-2.811,1.623l-3.943,14.714L100.784,82.448a41.142,41.142,0,0,0,23-9.749L133.5,89.536Z" transform="translate(-53.334)"/><text class="b" transform="translate(42.138 51.746)"><tspan x="-15.527" y="0">12</tspan></text></svg>