<svg xmlns="http://www.w3.org/2000/svg" width="70.838" height="61.876" viewBox="0 0 70.838 61.876"><defs><style>.a{fill:#b5328e;fill-rule:evenodd;}</style></defs><path class="a" d="M53.386,41.01H68a19.485,19.485,0,0,1-1.838,2.128l-2.284,2.284L38.125,71.169a2.409,2.409,0,0,1-3.407,0L8.969,45.421,6.684,43.138a19.619,19.619,0,0,1-1.555-1.762h7.415a3.458,3.458,0,0,0,2.578-1.152l4.231-4.729a.567.567,0,0,1,.845,0l3.5,3.919a3.435,3.435,0,0,0,2.99,1.134,3.593,3.593,0,0,0,2.6-1.719l5.3-8.561a.567.567,0,0,1,1.018.114l6.674,19.4a3.459,3.459,0,0,0,6.391.367l4.213-8.817a.567.567,0,0,1,.512-.323m-40.42-2.715L17.2,33.565a3.464,3.464,0,0,1,2.577-1.152h0a3.461,3.461,0,0,1,2.578,1.157l3.5,3.919a.566.566,0,0,0,.9-.078l5.364-8.665a3.458,3.458,0,0,1,6.211.7L45,48.842a.541.541,0,0,0,.5.381.552.552,0,0,0,.543-.321l4.213-8.817a3.477,3.477,0,0,1,3.121-1.968H69.779A19.411,19.411,0,0,0,38.7,15.685L36.42,17.968l-2.283-2.283a19.414,19.414,0,0,0-30.891,22.8h9.3a.567.567,0,0,0,.422-.188" transform="translate(-1 -9.999)"/></svg>