<svg xmlns="http://www.w3.org/2000/svg" width="91.228" height="105.262" viewBox="0 0 91.228 105.262"><defs><style>.a{fill:#07b154;}</style></defs><g transform="translate(-4)"><circle class="a" cx="1.754" cy="1.754" r="1.754" transform="translate(56.631 89.473)"/><circle class="a" cx="1.754" cy="1.754" r="1.754" transform="translate(63.649 89.473)"/><circle class="a" cx="1.754" cy="1.754" r="1.754" transform="translate(70.666 89.473)"/><circle class="a" cx="1.754" cy="1.754" r="1.754" transform="translate(53.122 56.14)"/><circle class="a" cx="1.754" cy="1.754" r="1.754" transform="translate(56.631 36.842)"/><circle class="a" cx="1.754" cy="1.754" r="1.754" transform="translate(63.649 36.842)"/><circle class="a" cx="1.754" cy="1.754" r="1.754" transform="translate(60.14 33.333)"/><circle class="a" cx="1.754" cy="1.754" r="1.754" transform="translate(63.649 29.824)"/><circle class="a" cx="1.754" cy="1.754" r="1.754" transform="translate(56.631 43.859)"/><circle class="a" cx="1.754" cy="1.754" r="1.754" transform="translate(53.122 40.351)"/><circle class="a" cx="1.754" cy="1.754" r="1.754" transform="translate(60.14 40.351)"/><circle class="a" cx="1.754" cy="1.754" r="1.754" transform="translate(53.122 61.403)"/><circle class="a" cx="1.754" cy="1.754" r="1.754" transform="translate(53.122 66.666)"/><circle class="a" cx="1.754" cy="1.754" r="1.754" transform="translate(53.122 71.929)"/><circle class="a" cx="1.754" cy="1.754" r="1.754" transform="translate(53.122 77.192)"/><circle class="a" cx="1.754" cy="1.754" r="1.754" transform="translate(53.122 82.456)"/><circle class="a" cx="1.754" cy="1.754" r="1.754" transform="translate(60.14 85.964)"/><circle class="a" cx="1.754" cy="1.754" r="1.754" transform="translate(67.157 85.964)"/><path class="a" d="M28.526,11H19.754a1.754,1.754,0,1,0,0,3.509h8.772a1.754,1.754,0,1,0,0-3.509Z" transform="translate(10.561 8.298)"/><path class="a" d="M32.3,18H14.754a1.754,1.754,0,1,0,0,3.509H32.3A1.754,1.754,0,0,0,32.3,18Z" transform="translate(6.789 13.579)"/><path class="a" d="M36.07,25H9.754a1.754,1.754,0,0,0,0,3.509H36.07a1.754,1.754,0,0,0,0-3.509Z" transform="translate(3.017 18.859)"/><path class="a" d="M39.087,32H5.754a1.754,1.754,0,0,0,0,3.509H39.087a1.754,1.754,0,1,0,0-3.509Z" transform="translate(0 24.14)"/><path class="a" d="M34.561,39H11.754a1.754,1.754,0,0,0,0,3.509H34.561a1.754,1.754,0,1,0,0-3.509Z" transform="translate(4.526 29.421)"/><path class="a" d="M30.035,46H17.754a1.754,1.754,0,1,0,0,3.509H30.035a1.754,1.754,0,1,0,0-3.509Z" transform="translate(9.052 34.701)"/><path class="a" d="M71.1,94.736H62.333V84.21a35.838,35.838,0,0,0-18.8-31.579,35.838,35.838,0,0,0,18.8-31.579V10.526H71.1A5.263,5.263,0,1,0,71.1,0H30.754a1.754,1.754,0,1,0,0,3.509H71.1a1.754,1.754,0,1,1,0,3.509H30.754a1.754,1.754,0,1,0,0,3.509h28.07V21.052A32.368,32.368,0,0,1,38.858,51.008l0,0,0,0c-.019.009-.032.025-.051.035a1.749,1.749,0,0,0-.514.347,1.671,1.671,0,0,0-.284.423,1.513,1.513,0,0,0-.095.14v0a1.766,1.766,0,0,0,0,1.342.009.009,0,0,0,0,.005,1.706,1.706,0,0,0,.337.507c.039.04.082.072.125.111a1.7,1.7,0,0,0,.395.267c.033.016.054.046.089.06A32.369,32.369,0,0,1,58.824,84.21V94.736a1.754,1.754,0,1,0-3.509,0H51.807a1.754,1.754,0,1,0-3.509,0H44.789a1.754,1.754,0,1,0-3.509,0H37.772a1.754,1.754,0,1,0-3.509,0H30.754a1.754,1.754,0,1,0,0,3.509H71.1a1.754,1.754,0,1,1,0,3.509H30.754a1.754,1.754,0,1,0,0,3.509H71.1a5.263,5.263,0,1,0,0-10.526Z" transform="translate(18.859)"/></g></svg>