<svg xmlns="http://www.w3.org/2000/svg" width="22.5" height="22.5" viewBox="0 0 22.5 22.5"><defs><style>.a{fill:rgba(0,0,0,0);}.b{fill:#4a4a4a;}</style></defs><rect class="a" width="22.5" height="22.5"/><path class="b" d="M13.3,0H5.114a1.023,1.023,0,0,0,0,2.045h5.713L.3,12.572a1.023,1.023,0,1,0,1.446,1.446L12.273,3.492V9.2a1.023,1.023,0,1,0,2.045,0V1.023A1.023,1.023,0,0,0,13.3,0Z" transform="translate(8.182)"/><path class="b" d="M17.386,6.136a1.023,1.023,0,0,0-1.023,1.023v9.2H2.045V2.045h9.2A1.023,1.023,0,1,0,11.25,0H1.023A1.023,1.023,0,0,0,0,1.023V17.386a1.023,1.023,0,0,0,1.023,1.023H17.386a1.023,1.023,0,0,0,1.023-1.023V7.159A1.023,1.023,0,0,0,17.386,6.136Z" transform="translate(0 4.091)"/></svg>