<svg xmlns="http://www.w3.org/2000/svg" width="70.627" height="60.757" viewBox="0 0 70.627 60.757"><defs><style>.a{fill:#5f5f62;fill-rule:evenodd;}</style></defs><path class="a" d="M45.723,23.331h-.636a2.41,2.41,0,0,0-2.41,2.41V43.124l-3.651-3.651V12.687a1.687,1.687,0,0,0-3.373,0V39.474l-3.7,3.7V25.741a2.41,2.41,0,0,0-2.41-2.41H28.9A26.9,26.9,0,0,0,2,50.235v6.548a14.975,14.975,0,0,0,29.95,0V47.948l5.39-5.39L42.677,47.9v8.887a14.975,14.975,0,0,0,29.95,0V50.235a26.9,26.9,0,0,0-26.9-26.9M21.413,64.111a1.445,1.445,0,0,1-1.445-1.446,9.6,9.6,0,0,0-9.586-9.586,1.446,1.446,0,1,1,0-2.892A12.491,12.491,0,0,1,22.859,62.665a1.445,1.445,0,0,1-1.446,1.446M65.4,53.331a9.6,9.6,0,0,0-9.586,9.586,1.446,1.446,0,0,1-2.892,0A12.492,12.492,0,0,1,65.4,50.439a1.446,1.446,0,1,1,0,2.892" transform="translate(-2 -11)"/></svg>