<svg xmlns="http://www.w3.org/2000/svg" width="48.927" height="52.422" viewBox="0 0 48.927 52.422"><defs><style>.a{fill:#fff;}.b{fill:#e56353;}.c{fill:#e2f1f3;}.d{fill:#27a2db;}.e{fill:#ebf0f3;}</style></defs><g transform="translate(-15.61)"><path class="a" d="M24.1,0,15.61,8.49V52.422H54.053V0Z"/><path class="b" d="M79.773,160.783a6.113,6.113,0,0,0-3.534-1.916,32.665,32.665,0,0,0-6.377-.513,26.01,26.01,0,0,1-4.787-6.4A73.129,73.129,0,0,0,67,143.794a3.041,3.041,0,0,0-.645-2.473,2.758,2.758,0,0,0-2.12-1.01h0a2.389,2.389,0,0,0-1.942.934c-1.607,2.046-.509,7-.271,7.972a16.439,16.439,0,0,0,1.012,2.88,43.659,43.659,0,0,1-3.481,8.186,28.7,28.7,0,0,0-8.358,4.614,3.388,3.388,0,0,0-1.239,2.449,2.376,2.376,0,0,0,.887,1.751,2.953,2.953,0,0,0,1.949.712,3.216,3.216,0,0,0,2.04-.732,27.138,27.138,0,0,0,6-7.184,30.215,30.215,0,0,1,8.3-1.59,46.755,46.755,0,0,0,5.932,4.834,3.808,3.808,0,0,0,4.775-.316C81.015,163.685,80.993,162.175,79.773,160.783ZM53.611,167.6a1.2,1.2,0,0,1-1.516.055.56.56,0,0,1-.233-.361c0-.088.038-.422.616-.987a25.344,25.344,0,0,1,5.257-3.175A23.484,23.484,0,0,1,53.611,167.6Zm10.181-25.175a.486.486,0,0,1,.439-.2.85.85,0,0,1,.65.32,1.109,1.109,0,0,1,.235.9h0c-.229,1.234-.592,3.193-1.191,5.52-.017-.067-.035-.134-.052-.2C63.377,146.721,63.024,143.4,63.792,142.426Zm-1.648,17.033a45.8,45.8,0,0,0,2.125-5.05,28.575,28.575,0,0,0,3.109,4.09A31.716,31.716,0,0,0,62.144,159.459Zm16.363,3.983a1.888,1.888,0,0,1-2.368.119,46.123,46.123,0,0,1-4.2-3.259,30.509,30.509,0,0,1,3.963.447,4.2,4.2,0,0,1,2.433,1.294C79.079,162.892,78.749,163.21,78.507,163.442Z" transform="translate(-30.496 -124.604)"/><path class="c" d="M24.1,8.49V0L15.61,8.49Z"/><path class="d" d="M284.937,44.584H266.764a1.4,1.4,0,0,1-1.4-1.4V35.4a1.4,1.4,0,0,1,1.4-1.4h18.173a1.4,1.4,0,0,1,1.4,1.4v7.781A1.4,1.4,0,0,1,284.937,44.584Z" transform="translate(-221.798 -30.2)"/><g transform="translate(45.95 6.164)"><path class="e" d="M290.606,55.576a1.939,1.939,0,0,1,.612,1.577,1.868,1.868,0,0,1-.625,1.56,3.062,3.062,0,0,1-1.916.495h-1.04v1.719h-.99V55.064h2.013A3.011,3.011,0,0,1,290.606,55.576Zm-.7,2.42a1.294,1.294,0,0,0,.3-.923.956.956,0,0,0-.377-.86,2.177,2.177,0,0,0-1.183-.252h-1.006V58.31h1.149A1.533,1.533,0,0,0,289.906,58Z" transform="translate(-286.647 -55.064)"/><path class="e" d="M342.334,55.832a2.732,2.732,0,0,1,.847,2.135,2.873,2.873,0,0,1-.822,2.164,3.493,3.493,0,0,1-2.516.8H337.9V55.064h2.013A3.488,3.488,0,0,1,342.334,55.832Zm-.151,2.16q0-2.013-2.306-2.013h-.99V60h1.1a2.365,2.365,0,0,0,1.631-.508A1.906,1.906,0,0,0,342.183,57.991Z" transform="translate(-332.16 -55.064)"/><path class="e" d="M397.478,55.987V57.6h2.6v.914h-2.6v2.416h-.99V55.064H400.4l-.008.923Z" transform="translate(-384.192 -55.064)"/></g></g></svg>