<svg xmlns="http://www.w3.org/2000/svg" width="17.779" height="20.878" viewBox="0 0 17.779 20.878"><defs><style>.a{fill:#b5328e;}</style></defs><path class="a" d="M124.419,158.457a3.978,3.978,0,1,0,3.978,3.978A3.982,3.982,0,0,0,124.419,158.457Zm2.362,3.229-2.85,2.85a.612.612,0,0,1-.866,0l-1.089-1.089a.612.612,0,1,1,.866-.866l.656.656,2.417-2.417a.612.612,0,1,1,.866.866Zm0,0" transform="translate(-115.53 -151.995)"/><path class="a" d="M17.758,5.664V5.648c-.009-.2-.015-.413-.019-.649a2.213,2.213,0,0,0-2.083-2.168A8.586,8.586,0,0,1,9.811.368L9.8.355a1.336,1.336,0,0,0-1.816,0L7.968.368A8.587,8.587,0,0,1,2.124,2.831,2.213,2.213,0,0,0,.041,5c0,.234-.01.447-.019.649v.038a22.627,22.627,0,0,0,.914,8.259,10.514,10.514,0,0,0,2.522,3.929,13.2,13.2,0,0,0,4.936,2.92,1.529,1.529,0,0,0,.2.055,1.494,1.494,0,0,0,.587,0,1.533,1.533,0,0,0,.2-.055,13.2,13.2,0,0,0,4.931-2.921,10.528,10.528,0,0,0,2.522-3.93A22.661,22.661,0,0,0,17.758,5.664ZM8.89,15.642a5.2,5.2,0,1,1,5.2-5.2A5.209,5.209,0,0,1,8.89,15.642Zm0,0" transform="translate(0 0.001)"/></svg>