<svg xmlns="http://www.w3.org/2000/svg" width="61.876" height="61.875" viewBox="0 0 61.876 61.875"><defs><style>.a{fill:#5f5f62;fill-rule:evenodd;}</style></defs><path class="a" d="M47.409,44.646a7.31,7.31,0,0,1-6.621,7.682c-4.136.255-6.937-3.164-7.491-7.2-.715-5.208.936-11.731,3.55-18.249A143.716,143.716,0,0,1,49.61,3.22a.478.478,0,0,1,.831.466A78.827,78.827,0,0,0,45.2,20.6a49.943,49.943,0,0,0-.758,6.286c-.482,9.381,2.785,12.3,2.971,17.763M71.876,29.313V62.445a2.406,2.406,0,0,1-2.38,2.43H12.379A2.4,2.4,0,0,1,10,62.445V29.313a2.4,2.4,0,0,1,2.379-2.43H29.9A2.426,2.426,0,0,1,32.15,30.1C30.34,35.621,29.368,41.02,30,45.6c.854,6.22,5.442,10.486,11.028,10.118,5.806-.382,10.063-5.771,9.689-11.7a25.148,25.148,0,0,0-1.409-6.356,26.613,26.613,0,0,1-1.584-8.294A2.411,2.411,0,0,1,50.1,26.883H69.5a2.406,2.406,0,0,1,2.38,2.43M16.624,55.486a2.087,2.087,0,0,0-1.471-.574,2.063,2.063,0,1,0,1.471.574m0-22.37a2.091,2.091,0,0,0-1.471-.575,2.063,2.063,0,1,0,1.471.575M21.936,44.3a2.089,2.089,0,0,0-1.471-.575,2.063,2.063,0,1,0,1.471.575m5.312,11.185a2.087,2.087,0,0,0-1.47-.574,2.063,2.063,0,1,0,1.47.574m0-22.37a2.089,2.089,0,0,0-1.47-.575,2.063,2.063,0,1,0,1.47.575m29.834,22.37a2.087,2.087,0,0,0-1.47-.574,2.063,2.063,0,1,0,1.47.574m0-22.37a2.087,2.087,0,0,0-1.47-.575,2.063,2.063,0,1,0,1.47.575M62.394,44.3a2.087,2.087,0,0,0-1.471-.575,2.063,2.063,0,1,0,1.471.575m5.312,11.185a2.088,2.088,0,0,0-1.471-.574,2.063,2.063,0,1,0,1.471.574m0-22.37a2.088,2.088,0,0,0-1.471-.575,2.063,2.063,0,1,0,1.471.575" transform="translate(-10 -3)"/></svg>