<svg xmlns="http://www.w3.org/2000/svg" width="46.947" height="61.877" viewBox="0 0 46.947 61.877"><defs><style>.a{fill:#5f5f62;fill-rule:evenodd;}</style></defs><path class="a" d="M68.078,69a2.276,2.276,0,0,1-2.208,2.76l-18.588.121a2.277,2.277,0,0,1-2.24-1.8l-1.088-5.107q-.009-.044-.017-.088a2.238,2.238,0,0,0-2.2-1.9H35.478c-3.652-.013-5.663-2.021-5.663-5.651v-.261H47.878a5.7,5.7,0,0,1,5.587,4.467L54.7,67.006a1.365,1.365,0,0,0,2.664-.6l-1.234-5.473a8.413,8.413,0,0,0-8.251-6.6H29.813q0-1.56-.01-3.121a.448.448,0,0,0-.321-.411c-.1-.031-3.759-.952-3.759-.952a2.281,2.281,0,0,1-1.65-2.776c.222-.861,2.826-11.042,3.418-13.716a15.383,15.383,0,0,0,.25-2.615c.027-.662.055-1.346.136-2.037,1.119-9.6,9.432-17.6,19.339-18.609A21.813,21.813,0,0,1,70.736,28.853,20.46,20.46,0,0,1,64.824,46.6a2.907,2.907,0,0,0-.95,3.106L68.078,69Z" transform="translate(-24.001 -10)"/></svg>